<svg width="45" height="24" viewBox="0 0 45 24" fill="none" xmlns="http://www.w3.org/2000/svg">
<g clip-path="url(#clip0_1522_2851)">
<path d="M4.88942 10.1289L1.96875 24.0005H7.28553L9.32547 14.3577H17.5564L18.4242 10.1289" fill="#1A6B54"></path>
<path d="M21.9795 0H15.6784H0C2.03346 0.777118 3.06962 2.22126 3.44522 4.23529H21.1117L21.9795 0Z" fill="#1A6B54"></path>
<path d="M44.7424 6.13276C44.7424 1.66433 41.0576 0 36.1099 0H28.1898H23.8898C25.7872 0.72531 27.4256 2.16945 26.7262 6.95521L23.145 23.9935H28.4553L30.2816 15.1862H33.39L36.641 23.9935H42.2297L38.3053 14.4738C42.0031 13.2952 44.7424 10.6141 44.7424 6.12628V6.13276ZM33.8304 11.197H31.1493L32.6323 3.98921H35.281C38.0009 3.98921 39.4969 4.86346 39.4969 6.8775C39.4969 9.48732 37.58 11.2035 33.8304 11.2035V11.197Z" fill="#1A6B54"></path>
</g>
<defs>
<clipPath id="clip0_1522_2851">
<rect width="44.7426" height="24" fill="white"></rect>
</clipPath>
</defs>
</svg>