<svg width="122" height="40" viewBox="0 0 122 40" fill="none" xmlns="http://www.w3.org/2000/svg">
<g clip-path="url(#clip0_1522_2964)">
<path d="M9.67945 31.9062H11.9699C13.5319 31.9062 14.5814 32.431 14.5814 33.7584C14.5814 35.5426 13.0442 36.481 11.1735 36.481H9.70414L9.00033 39.8519H8.00635L9.67945 31.9062ZM11.1303 35.7217C12.7231 35.7217 13.5998 35.0117 13.5998 33.8819C13.5998 33.0114 12.9577 32.6656 11.723 32.6656H10.5006L9.87083 35.7217H11.1241H11.1303ZM11.0871 36.2958L11.8464 35.7402L13.5936 39.8519H12.5317L11.0871 36.2958Z" fill="black"/>
<path d="M20.5699 31.9062H25.1817L25.0089 32.7027H21.3787L20.8415 35.2771H23.9161L23.7432 36.0736H20.6872L20.039 39.0555H23.7864L23.6136 39.8519H18.8906L20.5637 31.9062H20.5699Z" fill="black"/>
<path d="M30.8064 31.9062H31.9856L32.7141 36.197L32.9919 37.8331H33.0413L33.9365 36.197L36.4183 31.9062H37.5975L35.9244 39.8519H34.9798L35.9368 35.3697C36.0973 34.6536 36.3443 33.7275 36.5418 33.0361H36.4924L35.4861 34.8018L33.0166 39.0185H32.4609L31.683 34.8018L31.3929 33.0361H31.3435C31.2385 33.746 31.1274 34.6598 30.9854 35.3697L30.0408 39.8519H29.1147L30.7878 31.9062H30.8064Z" fill="black"/>
<path d="M43.6106 31.9062H44.6046L42.9315 39.8519H41.9375L43.6106 31.9062Z" fill="black"/>
<path d="M52.1304 32.7228H49.7041L49.877 31.9141H55.7235L55.5507 32.7228H53.1244L51.6303 39.8597H50.6363L52.1304 32.7228Z" fill="black"/>
<path d="M62.4532 32.7228H60.0269L60.1997 31.9141H66.0463L65.8734 32.7228H63.4471L61.9531 39.8597H60.9591L62.4532 32.7228Z" fill="black"/>
<path d="M71.942 31.9062H73.0842L74.0535 39.8519H73.0224L72.5903 35.2895C72.5162 34.4499 72.4236 33.604 72.3619 32.7027H72.3125C71.8679 33.6164 71.442 34.419 70.9727 35.2895L68.5032 39.8519H67.4043L71.9482 31.9062H71.942ZM69.6269 36.6354H73.3003L73.1212 37.3701H69.4355L69.633 36.6354H69.6269Z" fill="black"/>
<path d="M80.5175 31.9062H81.5115L83.413 36.9996L83.9501 38.6604H83.9995C84.1106 37.8763 84.2094 36.9502 84.3761 36.1229L85.2651 31.9062H86.2221L84.549 39.8519H83.5673L81.6781 34.7771L81.1349 33.0731H81.0855C80.9743 33.8942 80.8509 34.7771 80.678 35.5858L79.789 39.8581H78.832L80.5051 31.9124L80.5175 31.9062Z" fill="black"/>
<path d="M90.8403 36.7973C90.8403 34.2969 92.5628 31.7656 95.1558 31.7656C96.1066 31.7656 96.798 32.2719 97.2179 32.9448L96.5202 33.4387C96.1992 32.9263 95.7485 32.5806 95.1064 32.5806C93.1185 32.5806 91.8528 34.7846 91.8528 36.7108C91.8528 38.1555 92.4887 39.1927 93.9828 39.1927C94.6557 39.1927 95.2114 38.9211 95.7547 38.4827L96.2115 39.0877C95.5942 39.594 94.8163 40.0015 93.8099 40.0015C91.9022 40.0015 90.8465 38.6988 90.8465 36.7973H90.8403Z" fill="black"/>
<path d="M103.052 31.9062H107.664L107.491 32.7027H103.861L103.323 35.2771H106.398L106.225 36.0736H103.169L102.521 39.0555H106.268L106.096 39.8519H101.373L103.046 31.9062H103.052Z" fill="black"/>
<path d="M29.1821 14.0454C29.1821 5.95771 34.8991 0 41.4124 0C46.9071 0 50.4508 3.59315 50.4508 9.67433C50.4508 17.762 44.7339 23.7197 38.2206 23.7197C32.7259 23.7197 29.1821 20.1204 29.1821 14.0454ZM45.271 9.9892C45.271 6.35283 43.8264 4.14879 41.1531 4.14879C37.7328 4.14879 34.3558 8.42723 34.3558 13.7243C34.3558 17.3607 35.8004 19.5647 38.4737 19.5647C41.894 19.5647 45.271 15.2863 45.271 9.9892Z" fill="#1A6B54"/>
<path d="M79.3135 0.419922H93.5811L92.7538 4.45758H83.4869L82.4683 9.42131H90.3275L89.5002 13.459H81.6533L80.3877 19.2623H89.9632L89.136 23.3H74.5103L79.3135 0.419922Z" fill="#1A6B54"/>
<path d="M98.7734 0.419922H113.041L112.214 4.45758H102.947L101.928 9.42131H109.787L108.96 13.459H101.113L99.8477 19.2623H109.423L108.596 23.3H93.9702L98.7734 0.419922Z" fill="#1A6B54"/>
<path d="M12.6613 10.0762L9.87695 23.3004H14.9456L16.8904 14.1138H24.7373L25.5646 10.0762" fill="#1A6B54"/>
<path d="M28.9538 0.419922H22.9467H8C9.93857 1.16078 10.9264 2.53753 11.2845 4.45758H28.1266L28.9538 0.419922Z" fill="#1A6B54"/>
<path d="M73.0964 6.20986C73.0964 1.94995 69.5897 0.363281 64.8668 0.363281H57.3162H53.2168C55.0257 1.05475 56.5877 2.4315 55.9209 6.99393L52.5068 23.2372H57.5693L59.3104 14.8408H62.2738L65.373 23.2372H70.701L66.9597 14.1617C70.4849 13.0381 73.0964 10.4821 73.0964 6.20369V6.20986ZM62.6936 11.0378H60.1376L61.5514 4.16634H64.0765C66.6695 4.16634 68.0957 4.9998 68.0957 6.91985C68.0957 9.40789 66.2682 11.0439 62.6936 11.0439V11.0378Z" fill="#1A6B54"/>
</g>
<defs>
<clipPath id="clip0_1522_2964">
<rect width="121.041" height="40.0005" fill="white"/>
</clipPath>
</defs>
</svg>